<svg width="80" height="71" viewBox="0 0 80 71" fill="none" xmlns="http://www.w3.org/2000/svg">
<path d="M75 31.0625H5C2.23859 31.0625 0 33.0493 0 35.5C0 37.9507 2.23859 39.9375 5 39.9375H75C77.7614 39.9375 80 37.9507 80 35.5C80 33.0493 77.7614 31.0625 75 31.0625Z" fill="white"/>
<path d="M5 19.2292H75C77.7614 19.2292 80 17.2425 80 14.7917C80 12.341 77.7614 10.3542 75 10.3542H5C2.23859 10.3542 0 12.341 0 14.7917C0 17.2425 2.23859 19.2292 5 19.2292Z" fill="white"/>
<path d="M75 51.7708H5C2.23859 51.7708 0 53.7575 0 56.2083C0 58.659 2.23859 60.6458 5 60.6458H75C77.7614 60.6458 80 58.659 80 56.2083C80 53.7575 77.7614 51.7708 75 51.7708Z" fill="white"/>
</svg>
