<?xml version="1.0" encoding="UTF-8" standalone="no"?>
<!-- Generator: Adobe Illustrator 22.1.0, SVG Export Plug-In . SVG Version: 6.00 Build 0)  -->

<svg
   version="1.1"
   id="Layer_1"
   x="0px"
   y="0px"
   viewBox="0 0 81 81"
   style="enable-background:new 0 0 81 81;"
   xml:space="preserve"
   sodipodi:docname="black_bishop.svg"
   inkscape:version="1.4 (86a8ad7, 2024-10-11)"
   xmlns:inkscape="http://www.inkscape.org/namespaces/inkscape"
   xmlns:sodipodi="http://sodipodi.sourceforge.net/DTD/sodipodi-0.dtd"
   xmlns="http://www.w3.org/2000/svg"
   xmlns:svg="http://www.w3.org/2000/svg"><defs
   id="defs5" /><sodipodi:namedview
   id="namedview5"
   pagecolor="#505050"
   bordercolor="#eeeeee"
   borderopacity="1"
   inkscape:showpageshadow="0"
   inkscape:pageopacity="0"
   inkscape:pagecheckerboard="0"
   inkscape:deskcolor="#505050"
   inkscape:zoom="2.4166667"
   inkscape:cx="-6"
   inkscape:cy="73.034483"
   inkscape:window-width="1920"
   inkscape:window-height="1001"
   inkscape:window-x="-9"
   inkscape:window-y="-9"
   inkscape:window-maximized="1"
   inkscape:current-layer="Layer_1" />
<style
   type="text/css"
   id="style1">
	.st0{fill:none;}
	.st1{fill:#6D6E6E;}
</style>
<rect
   class="st0"
   width="81"
   height="81"
   id="rect1" />
<polygon
   points="18.9,72 62.1,72 50.3,62.5 30.7,62.5 "
   id="polygon1" />
<g
   id="g4">
	<path
   d="M41,18.9c1.5,0,2.9-0.5,4-1.3l2.8-5.2c0-0.1,0-0.2,0-0.3c0-3.7-3-6.8-6.8-6.8c-3.7,0-6.8,3-6.8,6.8c0,0.1,0,0.2,0,0.3   l2.8,5.2C38.2,18.4,39.6,18.9,41,18.9"
   id="path1" />
	<path
   d="M48.4,20.4l-9.7,18.2L37,32.7l8.1-15.2c-1-0.8-2-1.5-3-2.2H39c-10,6.6-19.1,17.5-19.1,32.2l10.9,15.2h2.7h14h2.7l10.9-15.2   C61.1,36.1,55.6,27,48.4,20.4"
   id="path2" />
	<path
   class="st1"
   d="M48.6,27.9l-7.2,13c0,0,5,1.3,7.2-1.9C50.8,35.9,50.2,28.9,48.6,27.9z"
   id="path3"
   style="fill:#0f47ad;fill-opacity:1" />
	<path
   class="st1"
   d="M31.2,55.1c-1.6-13.9,1.4-28.1,7.9-34.8l-0.5-0.7c-7.1,6.3-14,15.6-14,26.6L31.2,55.1z"
   id="path4"
   style="fill:#fe6d00;fill-opacity:1" />
</g>
<polygon
   class="st1"
   points="37.9,69 37.9,63.3 35.4,63.3 28.8,69 "
   id="polygon4"
   style="fill:#fe6d00;fill-opacity:1" />
<path
   class="st1"
   d="M42.4,7.9c-0.8-0.5-1.8-0.6-2.7-0.3c-1.9,0.5-3,2.5-2.5,4.4c0,0.1,0,0.1,0.1,0.2C40.3,12.4,42.8,9.3,42.4,7.9z"
   id="path5"
   style="fill:#0f47ad;fill-opacity:1" />
</svg>
