<?xml version="1.0" encoding="UTF-8" standalone="no"?>
<!-- Generator: Adobe Illustrator 22.1.0, SVG Export Plug-In . SVG Version: 6.00 Build 0)  -->

<svg
   version="1.1"
   id="Layer_1"
   x="0px"
   y="0px"
   viewBox="0 0 81 81"
   style="enable-background:new 0 0 81 81;"
   xml:space="preserve"
   sodipodi:docname="black_rook.svg"
   inkscape:version="1.4 (86a8ad7, 2024-10-11)"
   xmlns:inkscape="http://www.inkscape.org/namespaces/inkscape"
   xmlns:sodipodi="http://sodipodi.sourceforge.net/DTD/sodipodi-0.dtd"
   xmlns="http://www.w3.org/2000/svg"
   xmlns:svg="http://www.w3.org/2000/svg"><defs
   id="defs6" /><sodipodi:namedview
   id="namedview6"
   pagecolor="#505050"
   bordercolor="#eeeeee"
   borderopacity="1"
   inkscape:showpageshadow="0"
   inkscape:pageopacity="0"
   inkscape:pagecheckerboard="0"
   inkscape:deskcolor="#505050"
   inkscape:zoom="9.6666667"
   inkscape:cx="40.5"
   inkscape:cy="40.5"
   inkscape:window-width="1920"
   inkscape:window-height="1001"
   inkscape:window-x="-9"
   inkscape:window-y="-9"
   inkscape:window-maximized="1"
   inkscape:current-layer="Layer_1" />
<style
   type="text/css"
   id="style1">
	.st0{fill:none;}
	.st1{fill:#6D6E6E;}
</style>
<rect
   class="st0"
   width="81"
   height="81"
   id="rect1" />
<polygon
   points="56.9,31.1 24.1,31.1 19.2,72 61.8,72 61.8,72 "
   id="polygon1" />
<rect
   x="14.2"
   y="58.5"
   width="52.5"
   height="13.5"
   id="rect2" />
<path
   class="st1"
   d="M41.1,34.1c-0.1,7.2-6.6,24.4-14.2,24.4c-1.2,0-2.3,0-2.3,0l3.8-24.4H41.1z"
   id="path2"
   style="fill:#fe6d00;fill-opacity:1" />
<rect
   x="18.4"
   y="62.3"
   class="st1"
   width="17.9"
   height="6.1"
   id="rect3"
   style="fill:#fe6d00;fill-opacity:1" />
<polygon
   points="53.4,12 53.4,18.9 46.5,18.9 46.5,12 34.5,12 34.5,18.9 27.6,18.9 27.6,12 15.6,12 15.6,23.4 24.6,32.5 56.4,32.5   65.4,23.4 65.4,23.4 65.4,12 "
   id="polygon3" />
<g
   id="g6">
	<polygon
   class="st1"
   points="62.4,15 56.4,15 56.4,22.2  "
   id="polygon4"
   style="fill:#fe6d00;fill-opacity:1" />
	<polygon
   class="st1"
   points="43.5,15 37.5,15 37.5,22.2  "
   id="polygon5"
   style="fill:#fe6d00;fill-opacity:1" />
	<polygon
   class="st1"
   points="24.6,15 18.6,15 18.6,22.2  "
   id="polygon6"
   style="fill:#fe6d00;fill-opacity:1" />
</g>
</svg>
