<?xml version="1.0" encoding="UTF-8" standalone="no"?>
<!-- Generator: Adobe Illustrator 22.1.0, SVG Export Plug-In . SVG Version: 6.00 Build 0)  -->

<svg
   version="1.1"
   id="Layer_1"
   x="0px"
   y="0px"
   viewBox="0 0 81 81"
   style="enable-background:new 0 0 81 81;"
   xml:space="preserve"
   sodipodi:docname="black_knight.svg"
   inkscape:version="1.4 (86a8ad7, 2024-10-11)"
   xmlns:inkscape="http://www.inkscape.org/namespaces/inkscape"
   xmlns:sodipodi="http://sodipodi.sourceforge.net/DTD/sodipodi-0.dtd"
   xmlns="http://www.w3.org/2000/svg"
   xmlns:svg="http://www.w3.org/2000/svg"><defs
   id="defs3" /><sodipodi:namedview
   id="namedview3"
   pagecolor="#505050"
   bordercolor="#eeeeee"
   borderopacity="1"
   inkscape:showpageshadow="0"
   inkscape:pageopacity="0"
   inkscape:pagecheckerboard="0"
   inkscape:deskcolor="#505050"
   inkscape:zoom="9.6666667"
   inkscape:cx="40.5"
   inkscape:cy="40.5"
   inkscape:window-width="1920"
   inkscape:window-height="1001"
   inkscape:window-x="-9"
   inkscape:window-y="-9"
   inkscape:window-maximized="1"
   inkscape:current-layer="Layer_1" />
<style
   type="text/css"
   id="style1">
	.st0{fill:none;}
	.st1{fill:#6D6E6E;}
</style>
<rect
   class="st0"
   width="81"
   height="81"
   id="rect1" />
<path
   d="M 19.6,72 H 67 l -2,-6.1 c 0,0 -0.1,-17 -0.1,-26.1 0,-17.3 -8.5,-25.3 -16,-28.4 C 43.3,9.1 34.3,9.6 34.3,9.6 l 3.3,6.5 -25.6,20.3 2,12.2 13.4,3.5 6.1,-5.1 c 1.2,0.5 2.5,0.8 3.7,1.1 v 0.3 c 0,0 -14.3,8.6 -17.6,23.6 z M 31.4,31.3 c -0.6,0.3 -1.1,-0.5 -0.6,-1 l 7.2,-6.2 2.2,3.7 z"
   id="path1"
   sodipodi:nodetypes="cccsccccccccccccccc" />
<polygon
   class="st1"
   points="15.8,38 17.1,45.9 21.8,47 21.7,42.4 18.8,41.9 "
   id="polygon1"
   style="fill:#0f47ad;fill-opacity:1" />
<path
   class="st1"
   d="m 30.8,33.4 15.6,-3.8 2.2,-3.8 c 0,0 2.8,1.1 2.1,6.3 -0.7,5.2 -6.8,8.3 -12.1,7.6 -6.9,-0.9 -7.8,-6.3 -7.8,-6.3 z"
   id="path2"
   style="fill:#fe6d00;fill-opacity:1"
   sodipodi:nodetypes="cccscc" />
<path
   class="st1"
   d="M36,67.9c5.1-16.4,16.4-13,16.8-22.4c-3.3,5.9-10.7,5.6-10.7,5.6s-11.6,5.1-15.8,16.8  C26.3,67.9,36,67.9,36,67.9z"
   id="path3"
   style="fill:#0f47ad;fill-opacity:1" />
</svg>
