<?xml version="1.0" encoding="UTF-8" standalone="no"?>
<!-- Generator: Adobe Illustrator 22.1.0, SVG Export Plug-In . SVG Version: 6.00 Build 0)  -->

<svg
   version="1.1"
   id="Layer_2_1_"
   x="0px"
   y="0px"
   viewBox="0 0 81 81"
   style="enable-background:new 0 0 81 81;"
   xml:space="preserve"
   sodipodi:docname="black_king_chek.svg"
   inkscape:version="1.4 (86a8ad7, 2024-10-11)"
   xmlns:inkscape="http://www.inkscape.org/namespaces/inkscape"
   xmlns:sodipodi="http://sodipodi.sourceforge.net/DTD/sodipodi-0.dtd"
   xmlns="http://www.w3.org/2000/svg"
   xmlns:svg="http://www.w3.org/2000/svg"><defs
   id="defs7"><filter
     inkscape:collect="always"
     style="color-interpolation-filters:sRGB"
     id="filter3"
     x="-0.43199999"
     y="-0.43199999"
     width="1.864"
     height="1.864"><feGaussianBlur
       inkscape:collect="always"
       stdDeviation="14.4"
       id="feGaussianBlur3" /></filter></defs><sodipodi:namedview
   id="namedview7"
   pagecolor="#505050"
   bordercolor="#eeeeee"
   borderopacity="1"
   inkscape:showpageshadow="0"
   inkscape:pageopacity="0"
   inkscape:pagecheckerboard="0"
   inkscape:deskcolor="#505050"
   inkscape:zoom="8.0000001"
   inkscape:cx="31.875"
   inkscape:cy="25.5625"
   inkscape:window-width="1920"
   inkscape:window-height="1001"
   inkscape:window-x="-9"
   inkscape:window-y="-9"
   inkscape:window-maximized="1"
   inkscape:current-layer="Layer_2_1_"
   showgrid="false" />
<style
   type="text/css"
   id="style1">
	.st0{fill:none;}
	.st1{fill:#6D6E6E;}
</style>
<circle
   style="fill:#fe1517;fill-opacity:1;stroke-width:3.29739;filter:url(#filter3)"
   id="path3"
   cx="40.625"
   cy="40.625"
   r="40" /><rect
   class="st0"
   width="81"
   height="81"
   id="rect1" />
<g
   id="g1">
	<path
   d="m 59.7,25.6 c -6.6,0 -11.4,2.3 -14.7,7.1 L 40.5,39.1 36,32.6 c -3.3,-4.7 -8.1,-7.1 -14.7,-7.1 -7.7,0 -15.7,5.9 -15.7,15.9 0,8.4 3.4,15 10.9,21.3 v 9.4 H 64.4 V 62.7 C 71.9,56.3 75.3,49.7 75.3,41.4 75.4,31.5 67.4,25.6 59.7,25.6 Z m -19.2,31.6 -4.1,-6 4.1,-6 4.1,6 z"
   id="path1"
   sodipodi:nodetypes="scccsscccccsccccc" />
	<polygon
   points="50.7,21.4 50.7,13.7 42.7,14.6 44.4,7.2 36.6,7.2 38.3,14.6 30.3,13.7 30.3,21.4 38.3,19 35.2,29 40.5,35.9    45.8,29 42.7,19  "
   id="polygon1" />
</g>
<g
   id="g7">
	<polygon
   class="st1"
   points="40.5,19.9 37.7,28.5 40.5,31.9  "
   id="polygon2"
   style="fill:#0f47ad;fill-opacity:1" />
	<polygon
   class="st1"
   points="31.8,15.1 35.6,17.4 31.8,19.7  "
   id="polygon3"
   style="fill:#0f47ad;fill-opacity:1" />
	<polygon
   class="st1"
   points="49.2,15.1 42.8,16.3 47.5,17.4  "
   id="polygon4"
   style="fill:#fe6d00;fill-opacity:1" />
	<polygon
   class="st1"
   points="42.6,8.9 40.5,10.8 38.4,8.9  "
   id="polygon5"
   style="fill:#fe6d00;fill-opacity:1" />
	<path
   class="st1"
   d="M66.9,31.1c-2.1-1.5-4.6-2.2-7.1-2.2c-5.5,0-9.3,1.8-12,5.7l-6.2,8.8C41.6,43.3,56,30.6,66.9,31.1z"
   id="path5"
   style="fill:#fe6d00;fill-opacity:1" />
	<path
   class="st1"
   d="M29.3,30.3c-2-1-4.3-1.4-7.1-1.4c-6.1,0-12.4,4.7-12.4,12.7c0,5.1,1.5,9.5,4.8,13.6   C14.2,42.5,23.5,31.8,29.3,30.3z"
   id="path6"
   style="fill:#0f47ad;fill-opacity:1" />
	<path
   class="st1"
   d="M32.4,62.9c-6.1,0.3-9,0.8-11.8,1.4v4.8h11.8V62.9z"
   id="path7"
   style="fill:#fe6d00;fill-opacity:1" />
</g>
</svg>
