<?xml version="1.0" encoding="UTF-8" standalone="no"?>
<!-- Generator: Adobe Illustrator 22.1.0, SVG Export Plug-In . SVG Version: 6.00 Build 0)  -->

<svg
   version="1.1"
   id="Layer_1"
   x="0px"
   y="0px"
   viewBox="0 0 81 81"
   style="enable-background:new 0 0 81 81;"
   xml:space="preserve"
   sodipodi:docname="black_queen.svg"
   inkscape:version="1.4 (86a8ad7, 2024-10-11)"
   xmlns:inkscape="http://www.inkscape.org/namespaces/inkscape"
   xmlns:sodipodi="http://sodipodi.sourceforge.net/DTD/sodipodi-0.dtd"
   xmlns="http://www.w3.org/2000/svg"
   xmlns:svg="http://www.w3.org/2000/svg"><defs
   id="defs10" /><sodipodi:namedview
   id="namedview10"
   pagecolor="#505050"
   bordercolor="#eeeeee"
   borderopacity="1"
   inkscape:showpageshadow="0"
   inkscape:pageopacity="0"
   inkscape:pagecheckerboard="0"
   inkscape:deskcolor="#505050"
   inkscape:zoom="9.6666667"
   inkscape:cx="40.5"
   inkscape:cy="40.5"
   inkscape:window-width="1920"
   inkscape:window-height="1001"
   inkscape:window-x="-9"
   inkscape:window-y="-9"
   inkscape:window-maximized="1"
   inkscape:current-layer="Layer_1" />
<style
   type="text/css"
   id="style1">
	.st0{fill:none;}
	.st1{fill:#6D6E6E;}
</style>
<rect
   class="st0"
   width="81"
   height="81"
   id="rect1" />
<path
   d="M55.7,50.9l4-34.9L40.5,49.2L21.3,16l4.1,34.9L7.9,30.8L18.8,72h43.4l10.9-41.2L55.7,50.9z M40.5,66.9l-3.6-6.4l3.6-6.4  l3.6,6.4L40.5,66.9z"
   id="path1" />
<polygon
   points="40.5,11.7 34.9,35.2 40.5,44.7 46.1,35.2 "
   id="polygon1" />
<circle
   cx="40.5"
   cy="10.6"
   r="5.4"
   id="circle1" />
<path
   class="st1"
   d="M41.6,7.2c-0.8-0.4-1.7-0.6-2.6-0.3c-1.8,0.5-2.9,2.4-2.4,4.2c0,0.1,0,0.1,0.1,0.2C39.6,11.6,42,8.5,41.6,7.2z"
   id="path2"
   style="fill:#0f47ad;fill-opacity:1" />
<circle
   cx="59.5"
   cy="16"
   r="5.4"
   id="circle2" />
<path
   class="st1"
   d="M60.6,12.6c-0.8-0.4-1.7-0.6-2.6-0.3c-1.8,0.5-2.9,2.4-2.4,4.2c0,0.1,0,0.1,0.1,0.2  C58.6,16.9,61,13.9,60.6,12.6z"
   id="path3"
   style="fill:#fe6d00;fill-opacity:1" />
<circle
   cx="21.5"
   cy="16"
   r="5.4"
   id="circle3" />
<path
   class="st1"
   d="M22.6,12.6c-0.8-0.4-1.7-0.6-2.6-0.3c-1.8,0.5-2.9,2.4-2.4,4.2c0,0.1,0,0.1,0.1,0.2  C20.6,16.9,23,13.9,22.6,12.6z"
   id="path4"
   style="fill:#fe6d00;fill-opacity:1" />
<circle
   cx="73.1"
   cy="31.4"
   r="5.4"
   id="circle4" />
<path
   class="st1"
   d="M74.2,28c-0.8-0.4-1.7-0.6-2.6-0.3c-1.8,0.5-2.9,2.4-2.4,4.2c0,0.1,0,0.1,0.1,0.2C72.2,32.3,74.6,29.3,74.2,28z  "
   id="path5"
   style="fill:#0f47ad;fill-opacity:1" />
<circle
   cx="7.9"
   cy="31.4"
   r="5.4"
   id="circle5" />
<path
   class="st1"
   d="M9,28c-0.8-0.4-1.7-0.6-2.6-0.3C4.6,28.1,3.5,30,4,31.8c0,0.1,0,0.1,0.1,0.2C7,32.3,9.4,29.3,9,28z"
   id="path6"
   style="fill:#0f47ad;fill-opacity:1" />
<polygon
   class="st1"
   points="40.5,20.9 37.4,34.3 40.5,39.6 "
   id="polygon6"
   style="fill:#fe6d00;fill-opacity:1" />
<polygon
   class="st1"
   points="56.6,54.7 58.4,60.3 68,38.3 "
   id="polygon7"
   style="fill:#fe6d00;fill-opacity:1" />
<polygon
   class="st1"
   points="47.9,50.5 55.9,29.3 43.6,50.1 "
   id="polygon8"
   style="fill:#0f47ad;fill-opacity:1" />
<polygon
   class="st1"
   points="33.3,50.5 25,29.1 28.1,51 "
   id="polygon9"
   style="fill:#0f47ad;fill-opacity:1" />
<polygon
   class="st1"
   points="23.1,58.7 12.6,40.9 20.5,67.3 "
   id="polygon10"
   style="fill:#fe6d00;fill-opacity:1" />
</svg>
