<?xml version="1.0" encoding="UTF-8" standalone="no"?>
<!-- Generator: Adobe Illustrator 22.1.0, SVG Export Plug-In . SVG Version: 6.00 Build 0)  -->

<svg
   version="1.1"
   id="Layer_1"
   x="0px"
   y="0px"
   viewBox="0 0 81 81"
   style="enable-background:new 0 0 81 81;"
   xml:space="preserve"
   sodipodi:docname="white_bishop.svg"
   inkscape:version="1.4 (86a8ad7, 2024-10-11)"
   xmlns:inkscape="http://www.inkscape.org/namespaces/inkscape"
   xmlns:sodipodi="http://sodipodi.sourceforge.net/DTD/sodipodi-0.dtd"
   xmlns="http://www.w3.org/2000/svg"
   xmlns:svg="http://www.w3.org/2000/svg"><defs
   id="defs4" /><sodipodi:namedview
   id="namedview4"
   pagecolor="#505050"
   bordercolor="#eeeeee"
   borderopacity="1"
   inkscape:showpageshadow="0"
   inkscape:pageopacity="0"
   inkscape:pagecheckerboard="0"
   inkscape:deskcolor="#505050"
   inkscape:zoom="9.6666667"
   inkscape:cx="40.5"
   inkscape:cy="40.5"
   inkscape:window-width="1920"
   inkscape:window-height="1001"
   inkscape:window-x="-9"
   inkscape:window-y="-9"
   inkscape:window-maximized="1"
   inkscape:current-layer="Layer_1" />
<style
   type="text/css"
   id="style1">
	.st0{fill:none;}
	.st1{fill:#FFFFFF;}
	.st2{fill:#CFCECF;}
</style>
<rect
   class="st0"
   width="81"
   height="81"
   id="rect1" />
<path
   class="st1"
   d="m 61.4,70.586207 -11.9,-9.1 10.6,-14.6 c 0,-11 -4.9,-19.9 -11.9,-26.3 l -1.7,-0.8 -7.9,14.3 -1.5,-1.6 7.8,-14.7 v 0 l 2.7,-5.1 c 0,-0.1 0,-0.2 0,-0.2 0,-3.6000001 -2.9,-6.6000001 -6.6,-6.6000001 -3.6,0 -6.6,2.9 -6.6,6.6000001 0,0.1 0,0.2 0,0.2 l 2.3,4.4 c -8.7,6.6 -15.8,16.6 -15.8,29.8 l 10.6,14.6 -11.9,9.1 z"
   id="path1" />
<polygon
   class="st2"
   points="45.6,70.7 60,70.7 49.6,61.2 42.8,61.2 "
   id="polygon1"
   style="fill:#fe6d00;fill-opacity:1" />
<path
   class="st2"
   d="M50.8,25.1C54.7,42.1,36,55.8,36,55.8l7.3,4.7h7.4l10.2-13.2l-1.5-8.6l-3.6-8.3L53.2,26L50.8,25.1z"
   id="path2"
   style="fill:#0f47ad;fill-opacity:1" />
<path
   class="st2"
   d="M44.5,8.6c0.8,2.4-3.4,4.4-3.4,4.4v5.1l3.3,0.1l3-4.3l-0.3-3.4L45,8.6H44.5z"
   id="path3"
   style="fill:#fe6d00;fill-opacity:1" />
<path
   d="M65,72.2L50.9,61.6l10.2-14v-0.4c0-14.1-7.6-23.1-12.2-27.3l-2.3-2.3l2.1-3.9l0.1-0.3v-0.5c0-4.3-3.5-7.9-7.9-7.9  c-4.3,0-7.8,3.5-7.8,7.9v0.5l1.9,3.7c-5.9,4.6-15.5,14.6-15.5,30.1v0.4l10.2,14L16,72.2H65z M22.5,46.9c-0.3-14.6,9.3-24,15-28.2  l0.9-0.6L35.7,13c0-2.9,2.4-5.3,5.3-5.3c2.9,0,5.3,2.4,5.4,5.3L35.8,34.6v0.1l2.2,5.8l9.3-18.8l1.1,1c4.8,4.7,10.4,12.7,10.1,24.1  l-9.2,13H31.8L22.5,46.9z M32.9,62.5H48l9.8,7.3H23.2L32.9,62.5z"
   id="path4" />
<polyline
   points="36.2,18 41.1,18 38.4,20.1 34.6,20.1 "
   id="polyline4" />
</svg>
