<?xml version="1.0" encoding="UTF-8" standalone="no"?>
<!-- Generator: Adobe Illustrator 22.1.0, SVG Export Plug-In . SVG Version: 6.00 Build 0)  -->

<svg
   version="1.1"
   id="Layer_1"
   x="0px"
   y="0px"
   viewBox="0 0 81 81"
   style="enable-background:new 0 0 81 81;"
   xml:space="preserve"
   sodipodi:docname="white_queen.svg"
   inkscape:version="1.4 (86a8ad7, 2024-10-11)"
   xmlns:inkscape="http://www.inkscape.org/namespaces/inkscape"
   xmlns:sodipodi="http://sodipodi.sourceforge.net/DTD/sodipodi-0.dtd"
   xmlns="http://www.w3.org/2000/svg"
   xmlns:svg="http://www.w3.org/2000/svg"><defs
   id="defs25" /><sodipodi:namedview
   id="namedview25"
   pagecolor="#505050"
   bordercolor="#eeeeee"
   borderopacity="1"
   inkscape:showpageshadow="0"
   inkscape:pageopacity="0"
   inkscape:pagecheckerboard="0"
   inkscape:deskcolor="#505050"
   inkscape:zoom="9.6666667"
   inkscape:cx="40.5"
   inkscape:cy="40.5"
   inkscape:window-width="1920"
   inkscape:window-height="1001"
   inkscape:window-x="-9"
   inkscape:window-y="-9"
   inkscape:window-maximized="1"
   inkscape:current-layer="Layer_1" />
<style
   type="text/css"
   id="style1">
	.st0{fill:none;}
	.st1{fill:#FFFFFF;}
	.st2{fill:#CFCECF;}
</style>
<rect
   class="st0"
   width="81"
   height="81"
   id="rect1" />
<g
   id="g2">
	<circle
   class="st1"
   cx="21.9"
   cy="16.5"
   r="5.2"
   id="circle1" />
	<path
   class="st1"
   d="M59.1,21.8c2.9,0,5.2-2.3,5.2-5.2s-2.3-5.2-5.2-5.2s-5.2,2.3-5.2,5.2S56.2,21.8,59.1,21.8z"
   id="path1" />
	<path
   class="st1"
   d="M72.1,26.4c-2.9,0-5.2,2.3-5.2,5.2c0,1.4,0.6,2.8,1.5,3.7L55.2,50.5l3.3-28.7l-2.1-0.6l-9.8,16.9l-5.1-21.7   h-1.1h-1.1l-5.1,21.7l-9.8-16.9l-2.1,0.6l3.3,28.7l-13-15.2c0.9-0.9,1.5-2.3,1.5-3.7c0-2.9-2.3-5.2-5.2-5.2s-5.2,2.3-5.2,5.2   s2.3,5.2,5.2,5.2c0.5,0,1-0.1,1.5-0.2L19.5,71h42.1l9.1-34.4c0.5,0.1,1,0.2,1.5,0.2c2.9,0,5.2-2.3,5.2-5.2S75,26.4,72.1,26.4z"
   id="path2" />
	<circle
   class="st1"
   cx="40.5"
   cy="11.3"
   r="5.2"
   id="circle2" />
</g>
<g
   id="g8">
	<path
   class="st2"
   d="M48.4,33.6"
   id="path3" />
	<path
   class="st2"
   d="M34.5,33.6"
   id="path4" />
	<polygon
   class="st2"
   points="41.4,20.3 46.7,38.2 41.4,45.5  "
   id="polygon4" />
	<polygon
   class="st2"
   points="27.1,53.6 23.6,60.4 13.9,38.3  "
   id="polygon5" />
	<polygon
   class="st2"
   points="34,50.5 24.8,22.8 40.5,50.9  "
   id="polygon6" />
	<polygon
   class="st2"
   points="48.2,50.5 57.5,25.8 53.9,53.6  "
   id="polygon7" />
	<polygon
   class="st2"
   points="52.9,70.4 68.5,36.7 70,37 60.7,70.4  "
   id="polygon8" />
</g>
<path
   class="st2"
   d="M73.3,36.7c3.4-0.9,3.9-3.4,4-6.7c0-0.6-0.9-1.8-1.3-1.8c-0.4,0.1-0.8,0.1-1.2,0.3c0.3,2.5-1.3,5-3.8,5.7  c-1.1,0.3-2.1,0.2-3.1-0.1C67.3,35.1,71.8,37.1,73.3,36.7z"
   id="path8" />
<path
   class="st2"
   d="M60,21.3c3.4-0.9,3.9-3.4,4-6.7c0-0.6-0.9-1.8-1.3-1.8c-0.4,0.1-0.8,0.1-1.2,0.3c0.3,2.5-1.3,5-3.8,5.7  c-1.1,0.3-2.1,0.2-3.1-0.1C54,19.7,58.5,21.7,60,21.3z"
   id="path9" />
<path
   class="st2"
   d="M10.1,36.7c3.4-0.9,3.9-3.4,4-6.7c0-0.6-0.9-1.8-1.3-1.8c-0.4,0.1-0.8,0.1-1.2,0.3c0.3,2.5-1.3,5-3.8,5.7  c-1.1,0.3-2.1,0.2-3.1-0.1C4.1,35.1,8.6,37.1,10.1,36.7z"
   id="path10" />
<path
   class="st2"
   d="M23.1,21.3c3.4-0.9,3.9-3.4,4-6.7c0-0.6-0.9-1.8-1.3-1.8c-0.4,0.1-0.8,0.1-1.2,0.3c0.3,2.5-1.3,5-3.8,5.7  c-1.1,0.3-2.1,0.2-3.1-0.1C17.1,19.7,21.6,21.7,23.1,21.3z"
   id="path11" />
<path
   class="st2"
   d="M41.6,16.1c3.4-0.9,3.9-3.4,4-6.7c0-0.6-0.9-1.8-1.3-1.8c-0.4,0.1-0.8,0.1-1.2,0.3c0.3,2.5-1.3,5-3.8,5.7  c-1.1,0.3-2.1,0.2-3.1-0.1C35.6,14.6,40.1,16.5,41.6,16.1z"
   id="path12" />
<g
   id="g14">
	<circle
   class="st1"
   cx="21.9"
   cy="16.5"
   r="5.2"
   id="circle12" />
	<path
   class="st1"
   d="M59.1,21.8c2.9,0,5.2-2.3,5.2-5.2s-2.3-5.2-5.2-5.2s-5.2,2.3-5.2,5.2S56.2,21.8,59.1,21.8z"
   id="path13" />
	<path
   class="st1"
   d="M72.1,26.4c-2.9,0-5.2,2.3-5.2,5.2c0,1.4,0.6,2.8,1.5,3.7L55.2,50.5l3.3-28.7l-2.1-0.6l-9.8,16.9l-5.1-21.7   h-1.1h-1.1l-5.1,21.7l-9.8-16.9l-2.1,0.6l3.3,28.7l-13-15.2c0.9-0.9,1.5-2.3,1.5-3.7c0-2.9-2.3-5.2-5.2-5.2s-5.2,2.3-5.2,5.2   s2.3,5.2,5.2,5.2c0.5,0,1-0.1,1.5-0.2L19.5,71h42.1l9.1-34.4c0.5,0.1,1,0.2,1.5,0.2c2.9,0,5.2-2.3,5.2-5.2S75,26.4,72.1,26.4z"
   id="path14" />
	<circle
   class="st1"
   cx="40.5"
   cy="11.3"
   r="5.2"
   id="circle14" />
</g>
<g
   id="g19">
	<path
   class="st2"
   d="M48.4,33.6"
   id="path15" />
	<path
   class="st2"
   d="M34.5,33.6"
   id="path16" />
	<polygon
   class="st2"
   points="41.4,20.3 46.7,38.2 41.4,45.5  "
   id="polygon16"
   style="fill:#0f47ad;fill-opacity:1" />
	<polygon
   class="st2"
   points="27.1,53.6 23.6,60.4 13.9,38.3  "
   id="polygon17"
   style="fill:#0f47ad;fill-opacity:1" />
	<polygon
   class="st2"
   points="34,50.5 24.8,22.8 40.5,50.9  "
   id="polygon18"
   style="fill:#fe6d00;fill-opacity:1" />
	<polygon
   class="st2"
   points="48.2,50.5 57.5,25.8 53.9,53.6  "
   id="polygon19"
   style="fill:#fe6d00;fill-opacity:1" />
	<path
   class="st2"
   d="M42.1,70.4C62,65.7,68.5,36.7,68.5,36.7L70,37l-9.3,33.4C60.7,70.4,52.8,70.4,42.1,70.4z"
   id="path19"
   style="fill:#0f47ad;fill-opacity:1" />
</g>
<path
   class="st2"
   d="M73.3,36.7c3.4-0.9,3.9-3.4,4-6.7c0-0.6-0.9-1.8-1.3-1.8c-0.4,0.1-0.8,0.1-1.2,0.3c0.3,2.5-1.3,5-3.8,5.7  c-1.1,0.3-2.1,0.2-3.1-0.1C67.3,35.1,71.8,37.1,73.3,36.7z"
   id="path20"
   style="fill:#fe6d00;fill-opacity:1" />
<path
   class="st2"
   d="M60,21.3c3.4-0.9,3.9-3.4,4-6.7c0-0.6-0.9-1.8-1.3-1.8c-0.4,0.1-0.8,0.1-1.2,0.3c0.3,2.5-1.3,5-3.8,5.7  c-1.1,0.3-2.1,0.2-3.1-0.1C54,19.7,58.5,21.7,60,21.3z"
   id="path21"
   style="fill:#0f47ad;fill-opacity:1" />
<path
   class="st2"
   d="M10.1,36.7c3.4-0.9,3.9-3.4,4-6.7c0-0.6-0.9-1.8-1.3-1.8c-0.4,0.1-0.8,0.1-1.2,0.3c0.3,2.5-1.3,5-3.8,5.7  c-1.1,0.3-2.1,0.2-3.1-0.1C4.1,35.1,8.6,37.1,10.1,36.7z"
   id="path22"
   style="fill:#fe6d00;fill-opacity:1" />
<path
   class="st2"
   d="M23.1,21.3c3.4-0.9,3.9-3.4,4-6.7c0-0.6-0.9-1.8-1.3-1.8c-0.4,0.1-0.8,0.1-1.2,0.3c0.3,2.5-1.3,5-3.8,5.7  c-1.1,0.3-2.1,0.2-3.1-0.1C17.1,19.7,21.6,21.7,23.1,21.3z"
   id="path23"
   style="fill:#0f47ad;fill-opacity:1" />
<path
   class="st2"
   d="m 41.6,16.1 c 3.4,-0.9 3.9,-3.4 4,-6.7 0,-0.6 -0.9,-1.8 -1.3,-1.8 -0.4,0.1 -0.8,0.1 -1.2,0.3 0.3,2.5 -1.3,5 -3.8,5.7 -1.1,0.3 -2.1,0.2 -3.1,-0.1 -0.6,1.1 3.9,3 5.4,2.6 z"
   id="path24"
   style="fill:#fe6d00;fill-opacity:1"
   sodipodi:nodetypes="ccccccc" />
<path
   d="m 72.1,25.1 c -3.6,0 -6.4,2.9 -6.4,6.5 0,1.3 0.4,2.6 1.1,3.7 l -10.5,13 3.4,-25.4 c 3.3,-0.3 5.9,-3.1 5.9,-6.4 0,-3.6 -2.9,-6.5 -6.5,-6.5 -3.6,0 -6.5,2.9 -6.5,6.5 0,1.9 0.8,3.7 2.3,5 L 47.1,34.9 43,17.3 c 2.3,-1 3.9,-3.4 3.9,-6 0,-3.6 -2.9,-6.4 -6.4,-6.4 -3.6,0 -6.5,2.9 -6.5,6.4 0,2.6 1.5,4.9 3.9,6 L 33.8,34.9 26,21.5 c 1.5,-1.2 2.3,-3.1 2.3,-5 0,-3.6 -2.9,-6.5 -6.5,-6.5 -3.6,0 -6.5,2.9 -6.5,6.5 0,3.3 2.6,6.1 5.9,6.4 l 3.4,25.4 -10.4,-13 c 0.7,-1 1.1,-2.3 1.1,-3.7 0,-3.6 -2.9,-6.5 -6.5,-6.5 -3.6,0 -6.4,2.9 -6.4,6.5 0,3.6 2.9,6.4 6.4,6.4 h 0.5 l 9,34 v 0.2 h 44 l 9,-34.2 h 0.5 c 3.6,0 6.4,-2.9 6.4,-6.4 0.1,-3.6 -2.6,-6.5 -6.1,-6.5 z m -59,6.5 c 0,2.3 -1.9,4.1 -4.2,4.1 -2.3,0 -4.1,-1.8 -4.1,-4.1 0,-2.3 1.9,-4.2 4.1,-4.2 2.3,0 4.2,1.9 4.2,4.2 z m 8.8,-10.8 c -2.3,0 -4.1,-1.9 -4.1,-4.2 0,-2.3 1.9,-4.2 4.1,-4.2 2.3,0 4.2,1.9 4.2,4.2 0,2.2 -1.9,4.2 -4.2,4.2 z M 55,16.5 c 0,-2.3 1.9,-4.2 4.1,-4.2 2.3,0 4.2,1.9 4.2,4.2 0,2.3 -1.9,4.2 -4.2,4.2 C 56.8,20.8 55,18.9 55,16.5 Z M 20.4,69.8 11.8,37.4 c 0.1,-0.1 0.2,-0.1 0.3,-0.1 0.1,0 0.2,-0.1 0.3,-0.1 L 27.5,54.5 23.8,22.9 h 0.1 L 40.3,51 40.5,51.4 57.1,22.7 h 0.1 L 53.5,54.3 68.6,37 69.2,37.3 60.6,69.8 Z M 76.3,31.6 c 0,2.3 -1.9,4.1 -4.2,4.1 -2.3,0 -4.1,-1.8 -4.1,-4.1 0,-2.3 1.9,-4.2 4.1,-4.2 2.3,0 4.2,1.9 4.2,4.2 z M 40.5,46.3 35.7,38 40.4,17.8 h 0.3 L 45.3,38 Z m 0,-30.8 c -2.3,0 -4.2,-1.9 -4.2,-4.2 0,-2.3 1.9,-4.1 4.2,-4.1 2.3,0 4.2,1.9 4.2,4.1 0.1,2.3 -1.9,4.2 -4.2,4.2 z"
   id="path25"
   sodipodi:nodetypes="sscccssscccssscccssscccsssscccccscsssssssssssssscsccscccccccccccccsssssccccccssscs" />
<polygon
   points="40.5,65.7 36.6,59.8 40.5,54 44.4,59.8 "
   id="polygon25" />
</svg>
