<?xml version="1.0" encoding="UTF-8" standalone="no"?>
<!-- Generator: Adobe Illustrator 22.1.0, SVG Export Plug-In . SVG Version: 6.00 Build 0)  -->

<svg
   version="1.1"
   id="Layer_3"
   x="0px"
   y="0px"
   viewBox="0 0 81 81"
   style="enable-background:new 0 0 81 81;"
   xml:space="preserve"
   sodipodi:docname="white_pawn.svg"
   inkscape:version="1.4 (86a8ad7, 2024-10-11)"
   xmlns:inkscape="http://www.inkscape.org/namespaces/inkscape"
   xmlns:sodipodi="http://sodipodi.sourceforge.net/DTD/sodipodi-0.dtd"
   xmlns="http://www.w3.org/2000/svg"
   xmlns:svg="http://www.w3.org/2000/svg"><defs
   id="defs6" /><sodipodi:namedview
   id="namedview6"
   pagecolor="#505050"
   bordercolor="#eeeeee"
   borderopacity="1"
   inkscape:showpageshadow="0"
   inkscape:pageopacity="0"
   inkscape:pagecheckerboard="0"
   inkscape:deskcolor="#505050"
   inkscape:zoom="6.8353656"
   inkscape:cx="33.136487"
   inkscape:cy="49.229262"
   inkscape:window-width="1920"
   inkscape:window-height="1001"
   inkscape:window-x="-9"
   inkscape:window-y="-9"
   inkscape:window-maximized="1"
   inkscape:current-layer="Layer_3" />
<style
   type="text/css"
   id="style1">
	.st0{fill:none;}
	.st1{fill:#FFFFFF;}
	.st2{fill:#CFCECF;}
</style>
<rect
   class="st0"
   width="81"
   height="81"
   id="rect1" />
<g
   id="g1">
	<path
   class="st1"
   d="M29.7,37.8h21.6l-5.1-6h0.7c2.6-1.9,4.3-5.1,4.3-8.6c0-6-4.8-10.7-10.7-10.7s-10.7,4.8-10.7,10.7   c0,3.5,1.7,6.7,4.3,8.6h0.7L29.7,37.8z"
   id="path1" />
	<polygon
   class="st1"
   points="49.4,60.5 45.1,39.8 35.1,39.8 31.6,60.5 21,69.9 60,69.9  "
   id="polygon1" />
</g>
<polygon
   class="st2"
   points="40.5,59.7 47.8,71 61.6,71 51.2,60 49.8,59.1 46.9,38.9 40.5,38.9 "
   id="polygon2"
   style="fill:#0f47ad;fill-opacity:1" />
<polygon
   class="st2"
   points="44.4,38 52.5,38 47.2,31.5 41,31.5 "
   id="polygon3"
   style="fill:#fe6d00;fill-opacity:1" />
<path
   class="st2"
   d="M45,13.3c3.7,5.5,1.1,17.6-10.2,17.6c-0.2,0,12.1,0.6,13.1-0.3c1.9-1.9,3.1-4.4,3.1-7.3  C51.1,17.3,44.8,12.1,45,13.3z"
   id="path3"
   style="fill:#0f47ad;fill-opacity:1" />
<polygon
   class="st0"
   points="31.9,60.6 21.6,69.7 59.4,69.7 49.2,60.7 49.1,60.6 44.9,40 35.3,40 "
   id="polygon4" />
<polygon
   class="st0"
   points="46.1,32 34.9,32 30.2,37.9 50.8,37.9 "
   id="polygon5" />
<path
   class="st0"
   d="M47.5,29.5c1.6-1.7,2.5-4,2.5-6.4c0-5.3-4.2-9.5-9.5-9.5c-5.2,0-9.5,4.2-9.5,9.5c0,2.4,0.9,4.6,2.5,6.4H47.5z"
   id="path5" />
<path
   d="M15,72.2h51L51.5,59.4l-4.2-20h8.2l-7.1-8c2.9-2.2,3.6-5.6,3.6-8.1c0-6.4-5-11.4-11.4-11.4c-6.3,0-11.4,5.1-11.4,11.4  c0,2.5,0.6,5.9,3.6,8.1l-7.1,8H33l-3.4,20L15,72.2z M31.4,23.3c0-5,4.1-9.1,9.1-9.1c5.1,0,9.1,4,9.1,9.1c0,2.3-0.8,4.4-2.4,6.1H33.8  C32.3,27.7,31.4,25.5,31.4,23.3z M35.2,31.7h10.7l4.5,5.6H30.7L35.2,31.7z M35.4,39.4L35.4,39.4h9.3h0.1l4.4,21.2v0.1l10.2,9H21.6  l10.2-9.1L35.4,39.4z"
   id="path6" />
</svg>
